<svg width="21" height="20" viewBox="0 0 21 20" fill="none" xmlns="http://www.w3.org/2000/svg">
  <mask id="path-1-inside-1" fill="white">
    <path fill-rule="evenodd" clip-rule="evenodd"
      d="M19.5 10C19.5 14.9706 15.4706 19 10.5 19C5.52944 19 1.5 14.9706 1.5 10C1.5 5.02944 5.52944 1 10.5 1C15.4706 1 19.5 5.02944 19.5 10ZM20.5 10C20.5 15.5228 16.0228 20 10.5 20C4.97715 20 0.5 15.5228 0.5 10C0.5 4.47715 4.97715 0 10.5 0C16.0228 0 20.5 4.47715 20.5 10ZM10.5 14C12.7091 14 14.5 12.2091 14.5 10C14.5 7.79086 12.7091 6 10.5 6C8.29086 6 6.5 7.79086 6.5 10C6.5 12.2091 8.29086 14 10.5 14Z" />
  </mask>
  <path fill-rule="evenodd" clip-rule="evenodd"
    d="M19.5 10C19.5 14.9706 15.4706 19 10.5 19C5.52944 19 1.5 14.9706 1.5 10C1.5 5.02944 5.52944 1 10.5 1C15.4706 1 19.5 5.02944 19.5 10ZM20.5 10C20.5 15.5228 16.0228 20 10.5 20C4.97715 20 0.5 15.5228 0.5 10C0.5 4.47715 4.97715 0 10.5 0C16.0228 0 20.5 4.47715 20.5 10ZM10.5 14C12.7091 14 14.5 12.2091 14.5 10C14.5 7.79086 12.7091 6 10.5 6C8.29086 6 6.5 7.79086 6.5 10C6.5 12.2091 8.29086 14 10.5 14Z"
    fill="#212322" />
  <path
    d="M10.5 20C16.0228 20 20.5 15.5228 20.5 10H18.5C18.5 14.4183 14.9183 18 10.5 18V20ZM0.5 10C0.5 15.5228 4.97715 20 10.5 20V18C6.08172 18 2.5 14.4183 2.5 10H0.5ZM10.5 0C4.97715 0 0.5 4.47715 0.5 10H2.5C2.5 5.58172 6.08172 2 10.5 2V0ZM20.5 10C20.5 4.47715 16.0228 0 10.5 0V2C14.9183 2 18.5 5.58172 18.5 10H20.5ZM10.5 21C16.5751 21 21.5 16.0751 21.5 10H19.5C19.5 14.9706 15.4706 19 10.5 19V21ZM-0.5 10C-0.5 16.0751 4.42487 21 10.5 21V19C5.52944 19 1.5 14.9706 1.5 10H-0.5ZM10.5 -1C4.42487 -1 -0.5 3.92487 -0.5 10H1.5C1.5 5.02944 5.52944 1 10.5 1V-1ZM21.5 10C21.5 3.92487 16.5751 -1 10.5 -1V1C15.4706 1 19.5 5.02944 19.5 10H21.5ZM13.5 10C13.5 11.6569 12.1569 13 10.5 13V15C13.2614 15 15.5 12.7614 15.5 10H13.5ZM10.5 7C12.1569 7 13.5 8.34315 13.5 10H15.5C15.5 7.23858 13.2614 5 10.5 5V7ZM7.5 10C7.5 8.34315 8.84315 7 10.5 7V5C7.73858 5 5.5 7.23858 5.5 10H7.5ZM10.5 13C8.84315 13 7.5 11.6569 7.5 10H5.5C5.5 12.7614 7.73858 15 10.5 15V13Z"
    fill="#212322" mask="url(#path-1-inside-1)" />
</svg>