<svg width="21" height="20" viewBox="0 0 21 20" fill="none" xmlns="http://www.w3.org/2000/svg">
  <mask id="path-1-inside-1" fill="white">
    <path fill-rule="evenodd" clip-rule="evenodd"
      d="M10.5 19C15.4706 19 19.5 14.9706 19.5 10C19.5 5.02944 15.4706 1 10.5 1C5.52944 1 1.5 5.02944 1.5 10C1.5 14.9706 5.52944 19 10.5 19ZM10.5 20C16.0228 20 20.5 15.5228 20.5 10C20.5 4.47715 16.0228 0 10.5 0C4.97715 0 0.5 4.47715 0.5 10C0.5 15.5228 4.97715 20 10.5 20Z" />
  </mask>
  <path fill-rule="evenodd" clip-rule="evenodd"
    d="M10.5 19C15.4706 19 19.5 14.9706 19.5 10C19.5 5.02944 15.4706 1 10.5 1C5.52944 1 1.5 5.02944 1.5 10C1.5 14.9706 5.52944 19 10.5 19ZM10.5 20C16.0228 20 20.5 15.5228 20.5 10C20.5 4.47715 16.0228 0 10.5 0C4.97715 0 0.5 4.47715 0.5 10C0.5 15.5228 4.97715 20 10.5 20Z"
    fill="#212322" />
  <path
    d="M18.5 10C18.5 14.4183 14.9183 18 10.5 18V20C16.0228 20 20.5 15.5228 20.5 10H18.5ZM10.5 2C14.9183 2 18.5 5.58172 18.5 10H20.5C20.5 4.47715 16.0228 0 10.5 0V2ZM2.5 10C2.5 5.58172 6.08172 2 10.5 2V0C4.97715 0 0.5 4.47715 0.5 10H2.5ZM10.5 18C6.08172 18 2.5 14.4183 2.5 10H0.5C0.5 15.5228 4.97715 20 10.5 20V18ZM19.5 10C19.5 14.9706 15.4706 19 10.5 19V21C16.5751 21 21.5 16.0751 21.5 10H19.5ZM10.5 1C15.4706 1 19.5 5.02944 19.5 10H21.5C21.5 3.92487 16.5751 -1 10.5 -1V1ZM1.5 10C1.5 5.02944 5.52944 1 10.5 1V-1C4.42487 -1 -0.5 3.92487 -0.5 10H1.5ZM10.5 19C5.52944 19 1.5 14.9706 1.5 10H-0.5C-0.5 16.0751 4.42487 21 10.5 21V19Z"
    fill="#212322" mask="url(#path-1-inside-1)" />
</svg>